<?xml version="1.0" encoding="iso-8859-1"?>
<!-- Uploaded to: SVG Repo, www.svgrepo.com, Generator: SVG Repo Mixer Tools -->
<svg fill="#000000" height="800px" width="800px" version="1.1" id="Layer_1" xmlns="http://www.w3.org/2000/svg" xmlns:xlink="http://www.w3.org/1999/xlink" 
	 viewBox="0 0 512 512" xml:space="preserve">
<g>
	<g>
		<path d="M440.558,440.558h17.86V0H107.163C77.618,0,53.581,24.037,53.581,53.581v404.837c0,29.545,24.037,53.581,53.581,53.581
			h321.488h11.907h17.86v-35.721h-17.86c-9.849,0-17.86-8.012-17.86-17.86C422.698,448.57,430.709,440.558,440.558,440.558z
			 M390.037,476.279H107.163c-9.848,0-17.86-8.012-17.86-17.86c0-9.848,8.012-17.86,17.86-17.86h282.874
			c-1.981,5.588-3.06,11.601-3.06,17.86C386.977,464.678,388.056,470.691,390.037,476.279z M422.698,404.837H107.163
			c-6.261,0-12.27,1.089-17.86,3.072V53.581c0-9.848,8.012-17.86,17.86-17.86h315.535V404.837z"/>
	</g>
</g>
<g>
	<g>
		<path d="M148.837,95.256v130.977h214.326V95.256H148.837z M327.442,190.512H184.558v-59.535h142.884V190.512z"/>
	</g>
</g>
</svg>